<svg xmlns="http://www.w3.org/2000/svg" width="500" height="165" viewBox="0 223 500 120" style="background:none">
    <g fill="#52baba" fill-rule="evenodd" transform="translate(0,20) scale(0.8)">
        <!-- G -->
        <path d="M88.41094 263.3649c6.59476 0 11.62852 1.40314 15.10129 4.20942 3.47277 2.80628 5.20916 7.0157 5.20916 12.62826 0 6.31413-2.70104 11.0848-8.10313 14.31202-5.40209 3.22722-12.97904 4.84083-22.73086 4.84083-18.5916 0-27.8874-3.92879-27.8874-11.78637 0-2.31518.80681-4.33219 2.42042-6.05104 1.61361-1.71885 4.17434-2.96413 7.68219-3.73586-5.75287-2.31518-8.62931-6.13874-8.62931-11.47067 0-2.45549.78927-4.63036 2.3678-6.5246 1.57853-1.89424 3.70078-3.36753 6.36675-4.41989-5.82303-2.94659-8.73454-7.71727-8.73454-14.31202 0-5.89319 2.31518-10.36569 6.94554-13.41752 4.63036-3.05183 11.36543-4.57774 20.20521-4.57774 3.71832 0 7.19109.28063 10.41831.84188.56126-4.41989 2.08717-8.12067 4.57774-11.10234 2.49057-2.98167 6.01596-4.47251 10.57616-4.47251.91204 0 1.61361.03508 2.10471.10524l1.99947 13.57537c-1.26283-.21047-2.42042-.31571-3.47277-.31571-2.10471 0-3.91125.42094-5.41963 1.26283-1.50837.84188-2.61335 1.89424-3.31492 3.15706 6.45444 3.01675 9.68166 7.9979 9.68166 14.94344 0 5.82303-2.31518 10.24292-6.94554 13.25967-4.63036 3.01675-11.36543 4.52512-20.20521 4.52512-4.13926 0-7.8225-.31571-11.04972-.94712-1.4733.42094-2.20994 1.26283-2.20994 2.52565 0 1.9644 1.64869 2.94659 4.94607 2.94659h18.1005M79.25546 286.09576c8.76962 0 13.15443-1.26283 13.15443-3.78848 0-1.61361-1.68377-2.42042-5.0513-2.42042h-14.52249c-2.66597 0-4.52512.21047-5.57748.63141-1.05235.42094-1.57853 1.12251-1.57853 2.10471 0 1.19267 1.06989 2.06963 3.20968 2.63089 2.13979.56126 5.59502.84188 10.36569.84188zM78.62405 234.53039c-1.82408 0-3.27984.5788-4.36727 1.73639-1.08743 1.15759-1.63115 2.71858-1.63115 4.68298 0 1.9644.54372 3.52539 1.63115 4.68298 1.08743 1.15759 2.54319 1.73639 4.36727 1.73639 1.82408 0 3.27984-.5788 4.36727-1.73639 1.08743-1.15759 1.63115-2.71858 1.63115-4.68298 0-1.9644-.54372-3.52539-1.63115-4.68298-1.08743-1.15759-2.54319-1.73639-4.36727-1.73639"/>
        <!-- R -->
        <path d="M145.76427 223.05972c2.45549 0 4.31465.42094 5.57748 1.26283l-1.99947 17.57432c-.63141-.4911-1.54345-.87696-2.73612-1.15759-1.19267-.28063-2.49057-.42094-3.89371-.42094-3.29738 0-5.96334.8945-7.9979 2.6835-2.03455 1.789-3.05183 4.40235-3.05183 7.84004v25.88792h-21.25756v-52.61773h19.04762l.63141 12.31255c1.26283-4.27958 3.19214-7.57695 5.78795-9.89213 2.59581-2.31518 5.89319-3.47277 9.89213-3.47277z"/>
        <!-- A -->
        <path d="M206.27466 265.04867c1.19267 0 2.17487-.14031 2.94659-.42094l-1.68377 11.26019c-2.31518 1.26283-4.80575 1.89424-7.47172 1.89424-3.99895 0-7.31386-.71911-9.94475-2.15733-2.63089-1.43822-4.36727-3.56047-5.20916-6.36675-1.54345 2.66597-3.87617 4.75314-6.99816 6.26151-3.12199 1.50837-7.03324 2.26256-11.73375 2.26256-5.33193 0-9.3835-1.10497-12.1547-3.31492-2.7712-2.20994-4.1568-5.38455-4.1568-9.52381 0-4.41989 1.57853-7.9979 4.7356-10.73402 3.15706-2.73612 8.41884-4.84083 15.78532-6.31413l11.15496-2.31518v-1.99947c0-2.03455-.52618-3.61308-1.57853-4.7356-1.05235-1.12251-2.52565-1.68377-4.41989-1.68377-2.10471 0-3.82356.54372-5.15654 1.63115-1.33298 1.08743-2.13979 2.96413-2.42042 5.6301l-17.46909-3.68324c.77173-5.61256 3.31492-9.96229 7.62957-13.0492 4.31465-3.08691 10.36569-4.63036 18.15312-4.63036 17.53924 0 26.30887 6.98062 26.30887 20.94186v16.83767c0 2.80628 1.22775 4.20942 3.68324 4.20942M174.70403 265.36438c1.82408 0 3.42015-.54372 4.78821-1.63115 1.36806-1.08743 2.05209-2.61335 2.05209-4.57774v-4.84083l-5.78795 1.4733c-3.64816.91204-5.47224 2.73612-5.47224 5.47224 0 1.33298.4034 2.35026 1.21021 3.05183.80681.70157 1.8767 1.05235 3.20968 1.05235z"/>
        <!-- V -->
        <path d="M264.15417 224.11208l-17.89003 52.61773h-25.99316l-17.89003-52.61773h22.20468l8.73454 39.4633 8.83978-39.4633z"/>
        <!-- I -->
        <path d="M286.46409 276.72981h-21.25756v-52.61773h21.25756zM275.83531 219.48172c-4.27958 0-7.3314-.73665-9.15549-2.20994-1.82408-1.4733-2.73612-3.85863-2.73612-7.15601 0-3.36753.91204-5.78795 2.73612-7.26125 1.82408-1.4733 4.87591-2.20994 9.15549-2.20994 4.27958 0 7.3314.73665 9.15549 2.20994 1.82408 1.4733 2.73612 3.89371 2.73612 7.26125 0 3.29738-.91204 5.68272-2.73612 7.15601-1.82408 1.4733-4.87591 2.20994-9.15549 2.20994"/>
        <!-- F -->
        <path d="M316.66667 224.11208h15.36438v14.62773h-13.99632v37.99h-21.25756v-37.99h-7.78742v-14.62773h7.78742v-3.36753c0-6.87538 2.13979-11.94423 6.41936-15.20652 4.27958-3.2623 9.71674-4.89345 16.3115-4.89345 2.94659 0 5.55994.28063 7.84004.84188 2.2801.56126 4.05157 1.36806 5.31439 2.42042l-1.68377 12.73349c-1.40314-1.12251-3.40261-1.68377-5.99842-1.68377-2.73612 0-4.80575.54372-6.20889 1.63115-1.40314 1.08743-2.10471 2.8589-2.10471 5.31439z"/>
        <!-- O -->
        <path d="M360.44462 223.05972c9.05025 0 16.08349 2.40288 21.09971 7.20863 5.01622 4.80575 7.52434 11.52328 7.52434 20.15259 0 8.62931-2.50811 15.34684-7.52434 20.15259-5.01622 4.80575-12.04946 7.20863-21.09971 7.20863-9.05025 0-16.08349-2.40288-21.09971-7.20863-5.01622-4.80575-7.52434-11.52328-7.52434-20.15259 0-8.62931 2.50811-15.34684 7.52434-20.15259 5.01622-4.80575 12.04946-7.20863 21.09971-7.20863M360.44462 237.68745c-2.66597 0-4.54266.92958-5.6301 2.78874-1.08743 1.85916-1.63115 5.17408-1.63115 9.94475 0 4.77067.54372 8.08559 1.63115 9.94475 1.08743 1.85916 2.96413 2.78874 5.6301 2.78874 2.66597 0 4.54266-.92958 5.6301-2.78874 1.08743-1.85916 1.63115-5.17408 1.63115-9.94475 0-4.77067-.54372-8.08559-1.63115-9.94475-1.08743-1.85916-2.96413-2.78874-5.6301-2.78874z"/>
        <!-- X -->
        <path d="M426.32202 276.72981l-8.94501-17.25862-8.83978 17.25862h-23.36227l18.62668-26.72981-17.99526-25.88792h23.67798l8.3136 16.41673 8.52407-16.41673h23.25704l-17.99526 26.20363 18.41621 26.4141z"/>
    </g>
</svg>
