<svg version="1.1" viewBox="0.0 0.0 850.0 200.0" fill="none" stroke="none" stroke-linecap="square" stroke-miterlimit="10" xmlns:xlink="http://www.w3.org/1999/xlink" xmlns="http://www.w3.org/2000/svg"><clipPath id="p.0"><path d="m0 0l850.0 0l0 200.0l-850.0 0l0 -200.0z" clip-rule="nonzero"/></clipPath><g clip-path="url(#p.0)"><path fill="#000000" fill-opacity="0.0" d="m0 0l850.0 0l0 200.0l-850.0 0z" fill-rule="evenodd"/><path fill="#000000" fill-opacity="0.0" d="m151.4252 0.11023622l547.14966 0l0 151.77954l-547.14966 0z" fill-rule="evenodd"/><path fill="#595959" d="m172.62833 84.35711l-9.28125 0l0 -11.234375l9.28125 0l0 -16.765625l14.21875 -5.46875l0 22.234375l22.015625 0l0 11.234375l-22.015625 0l0 39.828125q0 10.109367 3.40625 14.374992q3.40625 4.265625 10.96875 4.265625q5.46875 0 11.3125 -2.765625l2.09375 12.5q-8.84375 2.25 -19.390625 2.25q-9.515625 0 -16.0625 -7.078125q-6.546875 -7.078125 -6.546875 -17.859375l0 -45.515617zm99.27658 2.46875q-4.65625 -3.21875 -9.359375 -3.21875q-7.5625 0 -13.21875 6.96875q-5.65625 6.953125 -5.65625 16.765625l0 45.968742l-14.21875 0l0 -80.18749l14.21875 0l0 12.8125q7.78125 -14.3125 23.140625 -14.3125q3.8125 0 11.0 1.359375l-5.90625 13.84375zm29.484955 -13.703125l0 51.140625q0 18.562492 16.09375 18.562492q7.046875 0 12.875 -4.03125q5.84375 -4.046875 7.71875 -9.359375l0 -56.312492l14.234375 0l0 80.18749l-14.234375 0l0 -11.078125q-2.390625 4.71875 -9.625 8.65625q-7.21875 3.921875 -14.109375 3.921875q-13.171875 0 -20.171875 -7.5625q-7.0 -7.5625 -7.0 -21.484367l0 -52.640625l14.21875 0zm137.83896 41.484375l-57.796875 0q0 14.078117 7.703125 21.640617q6.8125 6.578125 17.515625 6.578125q12.21875 0 20.375 -7.109375l5.984375 10.25q-3.296875 3.296875 -10.109375 5.703125q-8.53125 3.140625 -19.015625 3.140625q-15.125 0 -25.671875 -10.265625q-11.765625 -11.296875 -11.765625 -30.390617q0 -19.84375 12.0625 -31.8125q10.78125 -10.71875 25.53125 -10.71875q17.140625 0 26.875 9.671875q9.4375 9.28125 9.4375 24.625q0 4.71875 -1.125 8.6875zm-34.515625 -31.0q-9.515625 0 -15.953125 6.140625q-6.140625 5.84375 -6.953125 14.53125l44.390625 0q0 -8.609375 -5.390625 -14.375q-5.90625 -6.296875 -16.09375 -6.296875zm62.736115 63.937492l-5.015625 7.265625l-7.109375 0l0 -114.54687l14.21875 0l0 38.78125q2.03125 -2.765625 7.609375 -5.09375q5.578125 -2.328125 10.96875 -2.328125q16.46875 0 26.68747 11.390625q10.21875 11.375 10.21875 28.75q0 20.062492 -10.265625 31.562492q-10.2499695 11.484375 -27.765594 11.484375q-5.6875 0 -11.203125 -2.125q-5.5 -2.140625 -8.34375 -5.140625zm2.09375 -57.640617l0 46.265617q0 1.1875 5.3125 3.921875q5.328125 2.734375 8.09375 2.734375q14.515625 0 20.796875 -6.953125q6.296875 -6.96875 6.296875 -23.359367q0 -13.625 -7.34375 -21.265625q-7.328125 -7.640625 -19.75 -7.640625q-2.625 0 -7.3125 2.25q-4.671875 2.25 -6.09375 4.046875zm65.95474 23.125q0 -18.5625 10.0 -29.984375q10.0 -11.421875 26.3125 -11.421875q17.21875 0 26.71875 10.96875q9.515625 10.96875 9.515625 30.4375q0 19.390617 -9.734375 30.593742q-9.71875 11.1875 -26.5 11.1875q-17.140625 0 -26.734375 -11.296875q-9.578125 -11.3125 -9.578125 -30.484367zm14.984375 0q0 30.171867 21.328125 30.171867q9.96875 0 15.609375 -8.078125q5.65625 -8.093742 5.65625 -22.093742q0 -29.796875 -21.265625 -29.796875q-9.734375 0 -15.53125 7.9375q-5.796875 7.9375 -5.796875 21.859375zm121.35724 40.281242l-21.859375 -29.203117l-19.546875 29.203117l-16.625 0l29.125 -41.031242l-26.71875 -39.15625l16.015625 0l17.96875 27.5625l20.140625 -27.5625l15.71875 0l-29.125 39.15625l31.90625 41.031242l-17.0 0z" fill-rule="nonzero"/></g></svg>